<svg width="44" height="40" viewBox="0 0 44 40" fill="none" xmlns="http://www.w3.org/2000/svg">
    <path
        d="M30.6594 35.7957C30.2501 35.7957 29.8388 35.6568 29.5023 35.3725C28.7445 34.7331 28.6486 33.5997 29.288 32.8419L39.6094 20.6135L29.2887 8.38507C28.6493 7.62728 28.7451 6.49457 29.5029 5.85449C30.2607 5.2144 31.3934 5.31028 32.0335 6.06807L43.3322 19.455C43.8969 20.1242 43.8969 21.1028 43.3322 21.7713L32.0329 35.1576C31.6778 35.5788 31.1706 35.7957 30.6594 35.7957Z"
        fill="#39E991" />
    <path
        d="M13.3403 35.7951C12.8298 35.7951 12.3226 35.5782 11.9675 35.1577L0.668157 21.7714C0.103453 21.1023 0.103453 20.1236 0.668157 19.4551L11.9675 6.06818C12.6069 5.31039 13.7403 5.21451 14.4981 5.85394C15.2559 6.49336 15.3518 7.62674 14.7123 8.38452L4.38965 20.6136L14.711 32.8413C15.3505 33.5991 15.2552 34.7319 14.4974 35.3719C14.1602 35.6556 13.7489 35.7951 13.3403 35.7951Z"
        fill="#39E991" />
    <path
        d="M19.8845 39.3578C19.5734 39.4529 19.2283 39.4505 18.882 39.3309C17.899 38.9905 17.2779 37.8316 17.4951 36.7418L24.4058 2.02627C24.623 0.936422 25.5961 0.328891 26.5788 0.668601C27.5618 1.00905 28.183 2.16788 27.9658 3.25772L21.055 37.9733C20.9147 38.6789 20.4568 39.1828 19.8845 39.3578Z"
        fill="#39E991" />
</svg>